<svg class="icon" viewBox="0 0 1024 1024" xmlns="http://www.w3.org/2000/svg" width="200" height="200"><defs><style/></defs><path d="M832 874.667a32 32 0 013.072 63.85l-3.072.15H192a32 32 0 01-3.072-63.851l3.072-.15h640zm-320-608c123.712 0 224 100.288 224 224V800a32 32 0 01-32 32H320a32 32 0 01-32-32V490.667c0-123.712 100.288-224 224-224zm0 64a160 160 0 00-160 160V768h320V490.667a160 160 0 00-160-160zm-92.096 208.682l64-117.333a32 32 0 0157.536 27.861l-1.344 2.774-38.187 70.016H576a32 32 0 0129.312 44.842l-1.216 2.475-64 117.333a32 32 0 01-57.536-27.861l1.344-2.773 38.187-70.016H448a32 32 0 01-29.312-44.843l1.216-2.475 64-117.333-64 117.333zM234.667 373.333a32 32 0 013.072 63.851l-3.072.15h-64a32 32 0 01-3.072-63.851l3.072-.15h64zm618.666 0a32 32 0 013.072 63.851l-3.072.15h-64a32 32 0 01-3.072-63.851l3.072-.15h64zM318.87 177.835l2.432 2.197 42.667 42.667a32 32 0 01-42.837 47.466l-2.432-2.197-42.667-42.667a32 32 0 0142.837-47.466zm429.099 2.197a32 32 0 010 45.27l-42.667 42.666a32 32 0 01-45.269-45.27l42.667-42.666a32 32 0 0145.269 0zM512 85.333a32 32 0 0131.85 28.928l.15 3.072v64a32 32 0 01-63.85 3.072l-.15-3.072v-64a32 32 0 0132-32z"/></svg>